<mxfile host="app.diagrams.net" modified="2024-01-31T01:59:50.953Z" agent="Mozilla/5.0 (Windows NT 10.0; Win64; x64) AppleWebKit/537.36 (KHTML, like Gecko) Chrome/121.0.0.0 Safari/537.36 Edg/121.0.0.0" version="23.0.2" etag="OAf71Cgn3_1rb_3HjBx0" type="github">
  <diagram name="第 1 页" id="YHMcrKDChnRwgBGesPPQ">
    <mxGraphModel>
      <root>
        <mxCell id="0" />
        <mxCell id="1" parent="0" />
      </root>
    </mxGraphModel>
  </diagram>
</mxfile>
